<?xml version="1.0" standalone="no"?>
<!DOCTYPE svg PUBLIC "-//W3C//DTD SVG 20010904//EN"
 "http://www.w3.org/TR/2001/REC-SVG-20010904/DTD/svg10.dtd">
<svg version="1.0" xmlns="http://www.w3.org/2000/svg"
 width="854.000000pt" height="482.000000pt" viewBox="0 0 854.000000 482.000000"
 preserveAspectRatio="xMidYMid meet">

<g transform="translate(0.000000,482.000000) scale(0.100000,-0.100000)"
fill="#000000"  stroke="none">
<path  d="M0 2410 l0 -2410 4270 0 4270 0 0 2410 0 2410 -4270 0 -4270 0 0
-2410z m3218 625 c2 -60 0 -120 -3 -132 l-5 -23 -353 0 c-407 0 -427 -3 -478
-73 l-29 -40 0 -342 c0 -338 0 -342 23 -375 12 -19 38 -43 57 -54 32 -19 51
-21 255 -21 202 0 223 2 254 20 64 38 76 65 76 173 l0 97 -187 3 -188 2 0 134
c0 113 2 135 16 140 9 3 152 6 319 6 257 0 304 -2 315 -15 9 -11 11 -74 8
-258 l-4 -242 -31 -67 c-18 -38 -44 -83 -58 -102 -39 -51 -124 -113 -196 -143
-63 -26 -66 -26 -324 -27 -249 0 -263 1 -318 23 -132 52 -240 166 -277 291
-18 61 -20 97 -20 418 0 320 2 355 20 414 33 108 102 192 208 255 83 49 108
51 527 50 l390 -2 3 -110z m1194 82 c74 -36 159 -128 190 -204 20 -52 23 -74
23 -208 0 -148 0 -151 -32 -217 -38 -81 -100 -144 -180 -184 l-58 -29 -277 -3
-278 -3 0 134 c0 114 2 136 16 141 9 3 120 6 247 6 167 1 236 4 248 13 30 23
39 56 39 149 0 163 -9 168 -345 168 l-245 0 0 -582 c0 -321 -4 -589 -8 -596
-7 -9 -41 -12 -138 -10 l-129 3 -3 728 -2 728 437 -3 438 -3 57 -28z m767
-207 c94 -131 176 -242 181 -245 9 -6 71 75 254 333 l108 152 170 0 c135 0
168 -3 161 -12 -5 -7 -50 -69 -100 -138 -50 -69 -155 -215 -235 -325 -79 -110
-152 -212 -162 -227 l-17 -26 252 -349 c139 -191 254 -356 257 -366 4 -16 -7
-17 -158 -15 l-163 3 -171 237 c-94 130 -176 242 -182 248 -11 11 -38 -23
-277 -355 l-93 -130 -163 -3 c-157 -2 -163 -2 -158 17 2 10 118 175 257 366
l252 347 -34 49 c-18 26 -130 181 -248 344 -118 163 -221 305 -229 315 -13 20
-10 20 156 20 l170 0 172 -240z"/>
</g>
</svg>
